<svg width="18" height="18" viewBox="0 0 18 18" fill="none" xmlns="http://www.w3.org/2000/svg">
<path d="M17.1667 10.6675C16.8215 12.353 15.9636 13.8906 14.7104 15.0695C13.4572 16.2484 11.8701 17.0109 10.1667 17.2525V15.565C11.4248 15.3406 12.5921 14.7598 13.5299 13.8914C14.4676 13.0231 15.1364 11.9039 15.4567 10.6667L17.1667 10.6675ZM2.54334 10.6675C2.86018 11.8904 3.51756 12.9983 4.43908 13.8625C5.3606 14.7266 6.50843 15.3115 7.74917 15.5492V17.2408C6.06243 16.9838 4.49507 16.2158 3.25844 15.0402C2.02181 13.8647 1.1754 12.3382 0.833338 10.6667H2.54334V10.6675ZM14 8.16666V9.83332H13.1667C12.3115 9.83332 11.489 10.162 10.8693 10.7514C10.2497 11.3408 9.88026 12.1459 9.8375 13L9.83334 13.1667V14H8.16667V13.1667C8.16667 12.3115 7.83798 11.489 7.24857 10.8693C6.65916 10.2497 5.85414 9.88025 5 9.83749L4.83334 9.83332H4V8.16666H14ZM9 0.666656C13.3208 0.666656 16.8742 3.95582 17.2917 8.16666H15.615C15.4116 6.55574 14.6274 5.07438 13.4095 4.00055C12.1916 2.92672 10.6237 2.33422 9 2.33422C7.3763 2.33422 5.80839 2.92672 4.59048 4.00055C3.37257 5.07438 2.58836 6.55574 2.385 8.16666H0.707504C1.12584 3.95582 4.67917 0.666656 9 0.666656Z" fill="white"/>
</svg>
