<svg width="20" height="20" viewBox="0 0 20 20" fill="none" xmlns="http://www.w3.org/2000/svg">
<path d="M17.7136 6.26625C17.7336 6.24384 17.7526 6.22 17.7692 6.19499V6.19499C17.8832 6.02408 17.8979 5.80457 17.8003 5.62384C17.3852 4.85552 16.9035 4.20312 16.3086 3.62021C16.1064 3.4221 15.7997 3.38503 15.5465 3.51163V3.51163C13.9767 4.45349 11.9884 3.51163 11.6744 1.62791V1.62791C11.6105 1.37228 11.4054 1.17444 11.1462 1.12702C10.758 1.05599 10.3546 1 9.89535 1C9.42223 1 9.06794 1.05941 8.69817 1.13348C8.4814 1.1769 8.32558 1.36844 8.32558 1.58952V1.58952C8.32558 1.61507 8.3235 1.6409 8.31897 1.66604C7.98472 3.5243 6.01263 4.44711 4.45349 3.51163V3.51163C4.2003 3.38503 3.89336 3.42192 3.69407 3.62295C3.10358 4.21857 2.62449 4.91717 2.21147 5.62809C2.10841 5.8055 2.11803 6.02589 2.23184 6.1966V6.1966C2.2478 6.22053 2.26591 6.24333 2.28509 6.26478C3.50333 7.62746 2.97522 9.79563 1.31395 10.4186V10.4186C1.13 10.4799 1.01184 10.6598 1.0329 10.8525C1.13387 11.7767 1.30897 12.6879 1.61261 13.4774C1.68114 13.6556 1.8556 13.7674 2.04651 13.7674V13.7674C3.81865 13.6632 5.27928 15.3242 4.77347 17.0955C4.76955 17.1092 4.76423 17.1227 4.75785 17.1355V17.1355C4.70355 17.2441 4.73847 17.3764 4.84062 17.442C5.70105 17.9953 6.64644 18.4529 7.6768 18.6619C7.75525 18.6778 7.8361 18.6523 7.8927 18.5957V18.5957C7.9022 18.5862 7.91097 18.5758 7.91886 18.5649C8.96641 17.1213 11.14 17.1218 12.1868 18.5663C12.194 18.5762 12.202 18.5858 12.2107 18.5945V18.5945C12.2674 18.6511 12.3501 18.6732 12.4272 18.6515C13.4881 18.3529 14.4557 17.9576 15.2463 17.2985C15.296 17.2571 15.2984 17.1822 15.2527 17.1364V17.1364C15.2395 17.1232 15.2297 17.1066 15.2246 17.0887C14.7234 15.3199 16.0795 13.6633 17.9535 13.7674V13.7674C18.1431 13.7674 18.3143 13.6522 18.3815 13.4749C18.7034 12.6263 18.9438 11.7712 18.9914 10.8541C19.0016 10.6567 18.8735 10.4811 18.686 10.4186V10.4186C17.0254 9.69207 16.4971 7.62734 17.7136 6.26625Z" stroke="#676E89" stroke-miterlimit="10" stroke-linecap="round" stroke-linejoin="round"/>
<path d="M10.2288 13.3402C12.016 13.214 13.3625 11.6628 13.2363 9.87557C13.1101 8.08834 11.5589 6.74183 9.77166 6.86807C7.98442 6.99431 6.63792 8.54549 6.76416 10.3327C6.8904 12.12 8.44157 13.4665 10.2288 13.3402Z" stroke="#676E89" stroke-miterlimit="10" stroke-linecap="round" stroke-linejoin="round"/>
</svg>
