<svg width="18" height="18" viewBox="0 0 18 18" fill="none" xmlns="http://www.w3.org/2000/svg">
<path d="M6.08633 7.3813H1.29496C0.517986 7.3813 0 6.86331 0 6.08633V1.29496C0 0.517986 0.517986 0 1.29496 0H6.08633C6.86331 0 7.3813 0.517986 7.3813 1.29496V6.08633C7.3813 6.86331 6.86331 7.3813 6.08633 7.3813Z" fill="#110B56"/>
<path d="M14.2447 7.38156C12.1727 7.38156 10.6188 5.69811 10.6188 3.75566C10.6188 1.68372 12.3022 0.129761 14.2447 0.129761C16.3166 0.129761 17.8706 1.81321 17.8706 3.75566C18.0001 5.69811 16.3166 7.38156 14.2447 7.38156Z" fill="#110B56"/>
<path d="M6.08633 17.6331H1.29496C0.517986 17.6331 0 17.1152 0 16.3382V11.6763C0 10.8993 0.517986 10.3813 1.29496 10.3813H6.08633C6.86331 10.3813 7.3813 10.8993 7.3813 11.6763V16.4677C7.3813 17.1152 6.86331 17.6331 6.08633 17.6331Z" fill="#110B56"/>
<path d="M16.4677 17.6331H11.6763C10.8993 17.6331 10.3813 17.1152 10.3813 16.3382V11.6763C10.3813 10.8993 10.8993 10.3813 11.6763 10.3813H16.4677C17.2447 10.3813 17.7626 10.8993 17.7626 11.6763V16.4677C17.7626 17.1152 17.1152 17.6331 16.4677 17.6331Z" fill="#110B56"/>
</svg>
