<svg width="18" height="18" viewBox="0 0 18 18" fill="none" xmlns="http://www.w3.org/2000/svg">
<path d="M3.27309 17.3173H14.7269C15.3298 17.3173 15.9079 17.0779 16.3342 16.6516C16.7605 16.2253 17 15.6471 17 15.0443V8.04387C17 7.78553 16.9437 7.53029 16.835 7.29593C16.7263 7.06157 16.5678 6.85374 16.3705 6.6869L10.1485 1.42071C9.82745 1.14906 9.42053 1 9 1C8.57947 1 8.17255 1.14906 7.85153 1.42071L1.62945 6.6869C1.4322 6.85374 1.2737 7.06157 1.16499 7.29593C1.05628 7.53029 0.999977 7.78553 1 8.04387V15.0443C1 15.3428 1.0588 15.6383 1.17303 15.9141C1.28726 16.1899 1.4547 16.4405 1.66577 16.6516C1.87685 16.8627 2.12743 17.0301 2.40322 17.1443C2.679 17.2586 2.97459 17.3173 3.27309 17.3173V17.3173Z" stroke="#676E89" stroke-linecap="round" stroke-linejoin="round"/>
<path d="M6.7777 17.3174V11.8511C6.7777 11.656 6.85518 11.4689 6.99311 11.331C7.13104 11.1931 7.31811 11.1156 7.51316 11.1156H10.4868C10.6819 11.1156 10.869 11.1931 11.0069 11.331C11.1448 11.4689 11.2223 11.656 11.2223 11.8511V17.3174" stroke="#676E89" stroke-linecap="round" stroke-linejoin="round"/>
</svg>
