<svg width="21" height="21" viewBox="0 0 21 21" fill="none" xmlns="http://www.w3.org/2000/svg">
<path d="M11.7594 13.1296L8.47518 13.8265C8.29591 13.8645 8.10999 13.8571 7.9343 13.805C7.75861 13.7529 7.5987 13.6578 7.4691 13.5282C7.33949 13.3987 7.24429 13.2388 7.19213 13.0632C7.13997 12.8875 7.1325 12.7016 7.17041 12.5223L7.86732 9.2381C7.95599 8.82174 8.16323 8.43993 8.46405 8.13873L14.7569 1.84865C15.0257 1.57961 15.3449 1.36618 15.6963 1.22057C16.0476 1.07495 16.4242 1 16.8045 1C17.1848 1 17.5614 1.07495 17.9128 1.22057C18.2641 1.36618 18.5833 1.57961 18.8521 1.84865L19.151 2.14757C19.4202 2.4164 19.6337 2.73563 19.7793 3.08702C19.925 3.43842 20 3.81507 20 4.19546C20 4.57585 19.925 4.95251 19.7793 5.3039C19.6337 5.65529 19.4202 5.97453 19.151 6.24335L12.861 12.5334C12.5591 12.8344 12.1765 13.0415 11.7594 13.1296V13.1296Z" stroke="#676E89" stroke-linecap="round" stroke-linejoin="round"/>
<path d="M17.5574 7.86711V17.0623C17.5574 17.83 17.2524 18.5662 16.7096 19.1091C16.1667 19.6519 15.4305 19.9569 14.6628 19.9569H3.89455C3.12687 19.9569 2.39063 19.6519 1.84779 19.1091C1.30496 18.5662 1 17.83 1 17.0623V6.29794C1 5.53025 1.30496 4.79402 1.84779 4.25118C2.39063 3.70835 3.12687 3.40339 3.89455 3.40339H13.0486" stroke="#676E89" stroke-linecap="round" stroke-linejoin="round"/>
</svg>
