<svg width="17" height="20" viewBox="0 0 17 20" fill="none" xmlns="http://www.w3.org/2000/svg">
<path d="M0.5 16.1579H15.6579" stroke="#0F3F62" stroke-linecap="round" stroke-linejoin="round"/>
<path d="M1.44702 9.52635C1.44702 5.86383 4.41608 2.89478 8.0786 2.89478V2.89478C11.7411 2.89478 14.7102 5.86383 14.7102 9.52635V16.1579H1.44702V9.52635Z" stroke="#0F3F62" stroke-linecap="round" stroke-linejoin="round"/>
<path d="M6.43755 16.1578V15.6578C6.25907 15.6578 6.09411 15.753 6.00474 15.9075L6.43755 16.1578ZM9.72009 16.1578L10.1529 15.9075C10.0635 15.753 9.89857 15.6578 9.72009 15.6578V16.1578ZM6.68408 17.1052C6.68408 16.8503 6.75199 16.6128 6.87036 16.4082L6.00474 15.9075C5.8007 16.2602 5.68408 16.6698 5.68408 17.1052H6.68408ZM8.07882 18.4999C7.30853 18.4999 6.68408 17.8755 6.68408 17.1052H5.68408C5.68408 18.4278 6.75624 19.4999 8.07882 19.4999V18.4999ZM9.47356 17.1052C9.47356 17.8755 8.84911 18.4999 8.07882 18.4999V19.4999C9.4014 19.4999 10.4736 18.4278 10.4736 17.1052H9.47356ZM9.28728 16.4082C9.40565 16.6128 9.47356 16.8503 9.47356 17.1052H10.4736C10.4736 16.6698 10.3569 16.2602 10.1529 15.9075L9.28728 16.4082ZM9.72009 15.6578H6.43755V16.6578H9.72009V15.6578Z" fill="#0F3F62"/>
<circle cx="12" cy="3" r="3" fill="#FA5F1C"/>
</svg>
