<svg width="24" height="24" viewBox="0 0 24 24" fill="none" xmlns="http://www.w3.org/2000/svg">
<path d="M4 7.16V5.5C4 4.67157 4.67157 4 5.5 4H18.5C19.3284 4 20 4.67157 20 5.5V18.5C20 19.3284 19.3284 20 18.5 20H5.5C4.67157 20 4 19.3284 4 18.5V16.84M4 12H12.36" stroke="#79798B" stroke-width="1.5" stroke-linecap="round"/>
<path d="M15.7614 11.7796C15.89 11.8984 15.89 12.1016 15.7614 12.2204L12.7536 14.9989C12.5614 15.1764 12.25 15.0401 12.25 14.7786L12.25 9.22144C12.25 8.95986 12.5614 8.82358 12.7536 9.00107L15.7614 11.7796Z" fill="#79798B"/>
</svg>
