<svg width="18" height="19" viewBox="0 0 18 19" fill="none" xmlns="http://www.w3.org/2000/svg">
<path d="M9.0805 8.73327C11.216 8.73327 12.9471 7.00212 12.9471 4.86664C12.9471 2.73115 11.216 1 9.0805 1C6.94502 1 5.21387 2.73115 5.21387 4.86664C5.21387 7.00212 6.94502 8.73327 9.0805 8.73327Z" stroke="#676E89" stroke-linecap="round" stroke-linejoin="round"/>
<path d="M15.7155 18.4282C16.7226 18.4282 17.4339 17.4084 17.0597 16.4724C16.4231 14.8763 15.3226 13.5077 13.9001 12.5436C12.4777 11.5795 10.7988 11.0642 9.08048 11.0642C7.36212 11.0642 5.68325 11.5795 4.26083 12.5436C2.83841 13.5077 1.73782 14.8763 1.10127 16.4724C0.727067 17.4084 1.43785 18.4282 2.44545 18.4282H15.7155Z" stroke="#676E89" stroke-linecap="round" stroke-linejoin="round"/>
</svg>
