<svg width="20" height="20" viewBox="0 0 20 20" fill="none" xmlns="http://www.w3.org/2000/svg">
<path d="M7.25904 12.6972L10.3308 18.26C10.4486 18.4954 10.6333 18.6909 10.8617 18.822C11.0901 18.9532 11.3521 19.0141 11.615 18.9973C11.8779 18.9804 12.13 18.8865 12.3397 18.7274C12.5495 18.5682 12.7077 18.3507 12.7945 18.1022L18.2589 3.17344C18.3339 2.97292 18.3497 2.75506 18.3042 2.54584C18.2588 2.33663 18.1541 2.14489 18.0026 1.99351C17.8511 1.84212 17.6592 1.73748 17.4498 1.69207C17.2404 1.64665 17.0224 1.66238 16.8217 1.73737L1.88151 7.19759C1.63983 7.28554 1.42858 7.44113 1.27298 7.64579C1.11739 7.85045 1.02403 8.09553 1.00405 8.35178C0.984069 8.60802 1.03831 8.86459 1.1603 9.09086C1.28228 9.31714 1.46686 9.50355 1.692 9.62785L7.25904 12.6972ZM7.25904 12.6972L10.6862 9.27269" stroke="#0F3F62" stroke-width="1.625" stroke-linecap="round" stroke-linejoin="round"/>
</svg>
