<svg width="24" height="24" viewBox="0 0 24 24" fill="none" xmlns="http://www.w3.org/2000/svg">
<path d="M7.39219 3.12273C6.00443 3.84387 4.80495 4.88016 3.88994 6.14848C2.97492 7.4168 2.36981 8.88188 2.12315 10.4262H2.70312C6.44291 10.3396 9.37475 10.0156 11.7693 9.28232C10.7293 7.43844 9.46008 5.62923 7.93749 3.78935L7.93616 3.78801L7.39219 3.12273ZM2.00315 11.7595L2.00049 11.9995C2.00049 14.6886 3.06176 17.1298 4.78833 18.927L5.00299 18.495C5.01492 18.4711 5.02827 18.448 5.04299 18.4257C7.25353 15.0633 9.75473 13.0634 12.5519 12.1661C12.7412 12.1048 12.9332 12.0488 13.1252 11.9981C12.9012 11.4847 12.6625 10.9779 12.4092 10.4782C9.78939 11.3222 6.64023 11.6688 2.72578 11.7582H2.00449L2.00315 11.7595Z" fill="#0C111F"/>
<path d="M5.81361 19.8563C7.57526 21.2474 9.75527 22.0024 11.9999 21.9988C13.1905 21.9988 14.3331 21.7908 15.3904 21.4095V20.4496C15.0651 17.8697 14.4931 15.5032 13.6332 13.2447C13.4065 13.3007 13.1812 13.3647 12.9585 13.4354C10.5293 14.2153 8.25881 15.9725 6.17892 19.1257L5.81494 19.8563H5.81361ZM16.7237 20.8149C18.0125 20.1233 19.1342 19.1579 20.0099 17.9864C20.8857 16.8149 21.4942 15.4658 21.7927 14.034L21.0394 13.694C18.8716 13.0567 16.8517 12.7954 14.9691 13.0074C15.8197 15.3006 16.3917 17.7084 16.7183 20.3243C16.7223 20.3509 16.7237 20.3776 16.7237 20.4069V20.8149ZM21.9781 12.6554C22.1541 10.0365 21.2892 7.45399 19.5715 5.46924L19.1755 5.90787C17.6156 7.80508 15.8344 9.12099 13.6692 10.0169C13.9518 10.5822 14.2158 11.1515 14.4598 11.7288C16.689 11.4088 19.0329 11.7102 21.4607 12.4288C21.4903 12.4374 21.5193 12.4481 21.5474 12.4608L21.9781 12.6554ZM18.6342 4.5173C16.8067 2.89242 14.4454 1.99649 11.9999 2.00013C10.8293 2.00013 9.70673 2.20012 8.66279 2.57076L8.96677 2.9414C10.5933 4.90527 11.9426 6.84648 13.0439 8.83168C15.1011 8.00107 16.7317 6.78648 18.1556 5.04926C18.1621 5.0411 18.1687 5.0331 18.1756 5.02527L18.6342 4.51863V4.5173Z" fill="#0C111F"/>
</svg>
