<svg width="108" height="108" viewBox="0 0 108 108" fill="none" xmlns="http://www.w3.org/2000/svg">
<rect y="0.000793457" width="108" height="108" rx="54" fill="url(#paint0_linear_302_1251)"/>
<rect x="11" y="11.0008" width="86" height="86" rx="43" fill="white"/>
<path d="M47.5 32.3341C41.8234 32.3341 37.2084 36.9491 37.2084 42.6258C37.2084 48.1941 41.5634 52.7008 47.24 52.8958C47.4134 52.8741 47.5867 52.8741 47.7167 52.8958C47.76 52.8958 47.7817 52.8958 47.825 52.8958C47.8467 52.8958 47.8467 52.8958 47.8684 52.8958C53.415 52.7008 57.77 48.1941 57.7917 42.6258C57.7917 36.9491 53.1767 32.3341 47.5 32.3341Z" fill="url(#paint1_linear_302_1251)"/>
<path d="M58.5067 58.6591C52.4617 54.6291 42.6034 54.6291 36.515 58.6591C33.7634 60.5008 32.2467 62.9925 32.2467 65.6575C32.2467 68.3225 33.7634 70.7925 36.4934 72.6125C39.5267 74.6491 43.5134 75.6675 47.5 75.6675C51.4867 75.6675 55.4734 74.6491 58.5067 72.6125C61.2367 70.7708 62.7534 68.3008 62.7534 65.6141C62.7317 62.9491 61.2367 60.4791 58.5067 58.6591Z" fill="url(#paint2_linear_302_1251)"/>
<path d="M71.3117 43.9041C71.6584 48.1075 68.6684 51.7908 64.53 52.2891C64.5084 52.2891 64.5084 52.2891 64.4867 52.2891H64.4217C64.2917 52.2891 64.1617 52.2891 64.0534 52.3325C61.9517 52.4408 60.0234 51.7691 58.5717 50.5341C60.8034 48.5408 62.0817 45.5508 61.8217 42.3008C61.67 40.5458 61.0634 38.9425 60.1534 37.5775C60.9767 37.1658 61.93 36.9058 62.905 36.8191C67.1517 36.4508 70.9434 39.6141 71.3117 43.9041Z" fill="url(#paint3_linear_302_1251)"/>
<path d="M75.645 63.9458C75.4717 66.0475 74.1284 67.8675 71.875 69.1025C69.7084 70.2941 66.9784 70.8575 64.27 70.7925C65.83 69.3841 66.74 67.6291 66.9134 65.7658C67.13 63.0791 65.8517 60.5008 63.295 58.4425C61.8434 57.2941 60.1534 56.3841 58.3117 55.7125C63.1 54.3258 69.1234 55.2575 72.8284 58.2475C74.8217 59.8508 75.84 61.8658 75.645 63.9458Z" fill="url(#paint4_linear_302_1251)"/>
<rect x="11" y="11.0008" width="86" height="86" rx="43" stroke="url(#paint5_linear_302_1251)" stroke-width="2"/>
<defs>
<linearGradient id="paint0_linear_302_1251" x1="6.3245e-07" y1="53.5054" x2="108" y2="53.5054" gradientUnits="userSpaceOnUse">
<stop stop-color="white"/>
<stop offset="1" stop-color="white" stop-opacity="0"/>
</linearGradient>
<linearGradient id="paint1_linear_302_1251" x1="75.6687" y1="75.6675" x2="26.2767" y2="67.2135" gradientUnits="userSpaceOnUse">
<stop stop-color="#00796D"/>
<stop offset="1" stop-color="#38C682"/>
</linearGradient>
<linearGradient id="paint2_linear_302_1251" x1="75.6687" y1="75.6675" x2="26.2767" y2="67.2135" gradientUnits="userSpaceOnUse">
<stop stop-color="#00796D"/>
<stop offset="1" stop-color="#38C682"/>
</linearGradient>
<linearGradient id="paint3_linear_302_1251" x1="75.6687" y1="75.6675" x2="26.2767" y2="67.2135" gradientUnits="userSpaceOnUse">
<stop stop-color="#00796D"/>
<stop offset="1" stop-color="#38C682"/>
</linearGradient>
<linearGradient id="paint4_linear_302_1251" x1="75.6687" y1="75.6675" x2="26.2767" y2="67.2135" gradientUnits="userSpaceOnUse">
<stop stop-color="#00796D"/>
<stop offset="1" stop-color="#38C682"/>
</linearGradient>
<linearGradient id="paint5_linear_302_1251" x1="98" y1="98.0008" x2="-2.11054" y2="80.9008" gradientUnits="userSpaceOnUse">
<stop stop-color="#00796D"/>
<stop offset="1" stop-color="#38C682"/>
</linearGradient>
</defs>
</svg>
