<svg width="108" height="108" viewBox="0 0 108 108" fill="none" xmlns="http://www.w3.org/2000/svg">
<rect y="0.000793457" width="108" height="108" rx="54" fill="url(#paint0_linear_302_1244)"/>
<rect x="11" y="11.0008" width="86" height="86" rx="43" fill="white"/>
<path d="M40.4367 62.6675C40.675 61.6058 40.2417 60.0891 39.4834 59.3308L34.2184 54.0658C32.5717 52.4191 31.9217 50.6641 32.3984 49.1475C32.8967 47.6308 34.435 46.5908 36.7317 46.2008L43.4917 45.0741C44.4667 44.9008 45.6584 44.0341 46.1134 43.1458L49.84 35.6708C50.9234 33.5258 52.3967 32.3341 54 32.3341C55.6034 32.3341 57.0767 33.5258 58.16 35.6708L61.8867 43.1458C62.1684 43.7091 62.7534 44.2508 63.3817 44.6191L40.0467 67.9541C39.7434 68.2575 39.2234 67.9758 39.31 67.5425L40.4367 62.6675Z" fill="url(#paint1_linear_302_1244)"/>
<path d="M68.5167 59.3308C67.7367 60.1108 67.3034 61.6058 67.5634 62.6675L69.0584 69.1891C69.6867 71.8975 69.2967 73.9341 67.9534 74.9091C67.4117 75.2991 66.7617 75.4941 66.0034 75.4941C64.8984 75.4941 63.5984 75.0825 62.1684 74.2375L55.82 70.4675C54.8234 69.8825 53.1767 69.8825 52.18 70.4675L45.8317 74.2375C43.4267 75.6458 41.3684 75.8841 40.0467 74.9091C39.5484 74.5408 39.18 74.0425 38.9417 73.3925L65.2883 47.0458C66.285 46.0491 67.6934 45.5941 69.0584 45.8325L71.2467 46.2008C73.5433 46.5908 75.0817 47.6308 75.58 49.1475C76.0567 50.6641 75.4067 52.4191 73.76 54.0658L68.5167 59.3308Z" fill="url(#paint2_linear_302_1244)"/>
<rect x="11" y="11.0008" width="86" height="86" rx="43" stroke="url(#paint3_linear_302_1244)" stroke-width="2"/>
<defs>
<linearGradient id="paint0_linear_302_1244" x1="6.3245e-07" y1="53.5054" x2="108" y2="53.5054" gradientUnits="userSpaceOnUse">
<stop stop-color="white"/>
<stop offset="1" stop-color="white" stop-opacity="0"/>
</linearGradient>
<linearGradient id="paint1_linear_302_1244" x1="75.7325" y1="75.4996" x2="26.2822" y2="66.99" gradientUnits="userSpaceOnUse">
<stop stop-color="#00796D"/>
<stop offset="1" stop-color="#38C682"/>
</linearGradient>
<linearGradient id="paint2_linear_302_1244" x1="75.7325" y1="75.4996" x2="26.2822" y2="66.99" gradientUnits="userSpaceOnUse">
<stop stop-color="#00796D"/>
<stop offset="1" stop-color="#38C682"/>
</linearGradient>
<linearGradient id="paint3_linear_302_1244" x1="98" y1="98.0008" x2="-2.11054" y2="80.9008" gradientUnits="userSpaceOnUse">
<stop stop-color="#00796D"/>
<stop offset="1" stop-color="#38C682"/>
</linearGradient>
</defs>
</svg>
