<svg width="108" height="108" viewBox="0 0 108 108" fill="none" xmlns="http://www.w3.org/2000/svg">
<rect y="0.000793457" width="108" height="108" rx="54" fill="url(#paint0_linear_302_1237)"/>
<rect x="11" y="11.0008" width="86" height="86" rx="43" fill="white"/>
<path d="M53.87 32.7891L48.6483 44.9441H43.4267C42.56 44.9441 41.715 45.0091 40.8917 45.1825L43.0583 39.9825L43.145 39.7875L43.275 39.4408C43.34 39.2891 43.3833 39.1591 43.4483 39.0508C45.9617 33.2225 48.7783 31.4025 53.87 32.7891Z" fill="url(#paint1_linear_302_1237)"/>
<path d="M68.5817 45.5291L68.5383 45.5075C67.2383 45.1391 65.9167 44.9441 64.5733 44.9441H51.01L55.885 33.6125L55.95 33.4608C56.2533 33.5691 56.5783 33.7208 56.9033 33.8291L61.6917 35.8441C64.3567 36.9491 66.22 38.0975 67.3683 39.4841C67.5633 39.7441 67.7367 39.9825 67.91 40.2641C68.105 40.5675 68.2567 40.8708 68.3433 41.1958C68.43 41.3908 68.495 41.5641 68.5383 41.7591C68.8633 42.8641 68.885 44.1208 68.5817 45.5291Z" fill="url(#paint2_linear_302_1237)"/>
<path d="M55.1267 66.2641H55.6683C56.3183 66.2641 56.86 65.6791 56.86 64.9641C56.86 64.0541 56.6 63.9241 56.0367 63.7075L55.1267 63.3825V66.2641Z" fill="url(#paint3_linear_302_1237)"/>
<path d="M67.6283 48.6275C66.6533 48.3458 65.635 48.1941 64.5733 48.1941H43.4267C41.9533 48.1941 40.5667 48.4758 39.2667 49.0391C35.4967 50.6641 32.8533 54.4125 32.8533 58.7675V62.9925C32.8533 63.5125 32.8967 64.0108 32.9617 64.5308C33.4383 71.4208 37.1217 75.1041 44.0117 75.5591C44.51 75.6241 45.0083 75.6675 45.55 75.6675H62.45C70.4667 75.6675 74.6917 71.8541 75.1033 64.2708C75.125 63.8591 75.1467 63.4258 75.1467 62.9925V58.7675C75.1467 53.9791 71.9617 49.9491 67.6283 48.6275ZM56.7733 61.5841C57.77 61.9308 59.1133 62.6675 59.1133 64.9641C59.1133 66.9358 57.575 68.5175 55.6683 68.5175H55.1267V68.9941C55.1267 69.6225 54.6283 70.1208 54 70.1208C53.3717 70.1208 52.8733 69.6225 52.8733 68.9941V68.5175H52.6783C50.5983 68.5175 48.8867 66.7625 48.8867 64.5958C48.8867 63.9675 49.385 63.4691 50.0133 63.4691C50.6417 63.4691 51.14 63.9675 51.14 64.5958C51.14 65.5058 51.8333 66.2641 52.6783 66.2641H52.8733V62.6025L51.2267 62.0175C50.23 61.6708 48.8867 60.9341 48.8867 58.6375C48.8867 56.6658 50.425 55.0841 52.3317 55.0841H52.8733V54.6075C52.8733 53.9791 53.3717 53.4808 54 53.4808C54.6283 53.4808 55.1267 53.9791 55.1267 54.6075V55.0841H55.3217C57.4017 55.0841 59.1133 56.8391 59.1133 59.0058C59.1133 59.6341 58.615 60.1325 57.9867 60.1325C57.3583 60.1325 56.86 59.6341 56.86 59.0058C56.86 58.0958 56.1667 57.3375 55.3217 57.3375H55.1267V60.9991L56.7733 61.5841Z" fill="url(#paint4_linear_302_1237)"/>
<path d="M51.14 58.6375C51.14 59.5475 51.4 59.6775 51.9633 59.8941L52.8733 60.2191V57.3375H52.3317C51.66 57.3375 51.14 57.9225 51.14 58.6375Z" fill="url(#paint5_linear_302_1237)"/>
<rect x="11" y="11.0008" width="86" height="86" rx="43" stroke="url(#paint6_linear_302_1237)" stroke-width="2"/>
<defs>
<linearGradient id="paint0_linear_302_1237" x1="6.3245e-07" y1="53.5054" x2="108" y2="53.5054" gradientUnits="userSpaceOnUse">
<stop stop-color="white"/>
<stop offset="1" stop-color="white" stop-opacity="0"/>
</linearGradient>
<linearGradient id="paint1_linear_302_1237" x1="75.1467" y1="75.6675" x2="26.9689" y2="67.6332" gradientUnits="userSpaceOnUse">
<stop stop-color="#00796D"/>
<stop offset="1" stop-color="#38C682"/>
</linearGradient>
<linearGradient id="paint2_linear_302_1237" x1="75.1467" y1="75.6675" x2="26.9689" y2="67.6332" gradientUnits="userSpaceOnUse">
<stop stop-color="#00796D"/>
<stop offset="1" stop-color="#38C682"/>
</linearGradient>
<linearGradient id="paint3_linear_302_1237" x1="75.1467" y1="75.6675" x2="26.9689" y2="67.6332" gradientUnits="userSpaceOnUse">
<stop stop-color="#00796D"/>
<stop offset="1" stop-color="#38C682"/>
</linearGradient>
<linearGradient id="paint4_linear_302_1237" x1="75.1467" y1="75.6675" x2="26.9689" y2="67.6332" gradientUnits="userSpaceOnUse">
<stop stop-color="#00796D"/>
<stop offset="1" stop-color="#38C682"/>
</linearGradient>
<linearGradient id="paint5_linear_302_1237" x1="75.1467" y1="75.6675" x2="26.9689" y2="67.6332" gradientUnits="userSpaceOnUse">
<stop stop-color="#00796D"/>
<stop offset="1" stop-color="#38C682"/>
</linearGradient>
<linearGradient id="paint6_linear_302_1237" x1="98" y1="98.0008" x2="-2.11054" y2="80.9008" gradientUnits="userSpaceOnUse">
<stop stop-color="#00796D"/>
<stop offset="1" stop-color="#38C682"/>
</linearGradient>
</defs>
</svg>
