<svg width="108" height="108" viewBox="0 0 108 108" fill="none" xmlns="http://www.w3.org/2000/svg">
<rect y="0.000793457" width="108" height="108" rx="54" fill="url(#paint0_linear_302_1230)"/>
<rect x="11" y="11.0008" width="86" height="86" rx="43" fill="white"/>
<path d="M63.0783 32.3341H44.9217C37.035 32.3341 32.3333 37.0358 32.3333 44.9225V63.0575C32.3333 70.9658 37.035 75.6675 44.9217 75.6675H63.0567C70.9433 75.6675 75.645 70.9658 75.645 63.0791V44.9225C75.6667 37.0358 70.965 32.3341 63.0783 32.3341ZM52.9817 57.3158L44.9217 65.3758H49.6667C50.555 65.3758 51.2917 66.1125 51.2917 67.0008C51.2917 67.8891 50.555 68.6258 49.6667 68.6258H41C40.7833 68.6258 40.5667 68.5825 40.3717 68.4958C39.9817 68.3225 39.6567 68.0191 39.4833 67.6075C39.4183 67.4125 39.375 67.2175 39.375 67.0008V58.3341C39.375 57.4458 40.1117 56.7091 41 56.7091C41.8883 56.7091 42.625 57.4458 42.625 58.3341V63.0791L50.685 55.0191C51.3133 54.3908 52.3533 54.3908 52.9817 55.0191C53.61 55.6475 53.61 56.6875 52.9817 57.3158ZM68.625 49.6675C68.625 50.5558 67.8883 51.2925 67 51.2925C66.1117 51.2925 65.375 50.5558 65.375 49.6675V44.9225L57.315 52.9825C56.99 53.3075 56.5783 53.4591 56.1667 53.4591C55.755 53.4591 55.3433 53.3075 55.0183 52.9825C54.39 52.3541 54.39 51.3141 55.0183 50.6858L63.0783 42.6258H58.3333C57.445 42.6258 56.7083 41.8891 56.7083 41.0008C56.7083 40.1125 57.445 39.3758 58.3333 39.3758H67C67.2167 39.3758 67.4117 39.4191 67.6283 39.5058C68.0183 39.6791 68.3433 39.9825 68.5167 40.3941C68.5817 40.5891 68.625 40.7841 68.625 41.0008V49.6675Z" fill="url(#paint1_linear_302_1230)"/>
<rect x="11" y="11.0008" width="86" height="86" rx="43" stroke="url(#paint2_linear_302_1230)" stroke-width="2"/>
<defs>
<linearGradient id="paint0_linear_302_1230" x1="6.3245e-07" y1="53.5054" x2="108" y2="53.5054" gradientUnits="userSpaceOnUse">
<stop stop-color="white"/>
<stop offset="1" stop-color="white" stop-opacity="0"/>
</linearGradient>
<linearGradient id="paint1_linear_302_1230" x1="75.6451" y1="75.6675" x2="26.3714" y2="67.2551" gradientUnits="userSpaceOnUse">
<stop stop-color="#00796D"/>
<stop offset="1" stop-color="#38C682"/>
</linearGradient>
<linearGradient id="paint2_linear_302_1230" x1="98" y1="98.0008" x2="-2.11054" y2="80.9008" gradientUnits="userSpaceOnUse">
<stop stop-color="#00796D"/>
<stop offset="1" stop-color="#38C682"/>
</linearGradient>
</defs>
</svg>
