<svg width="24" height="24" viewBox="0 0 24 24" fill="none" xmlns="http://www.w3.org/2000/svg">
<path d="M12.0003 15.426C13.8921 15.426 15.4258 13.8923 15.4258 12.0004C15.4258 10.1085 13.8921 8.57485 12.0003 8.57485C10.1084 8.57485 8.5747 10.1085 8.5747 12.0004C8.5747 13.8923 10.1084 15.426 12.0003 15.426Z" fill="#0C111F"/>
<path fill-rule="evenodd" clip-rule="evenodd" d="M2 12C2 8.0054 2 6.0081 2.95188 4.5695C3.37694 3.9271 3.9271 3.37694 4.5695 2.95188C6.0081 2 8.0054 2 12 2C15.9946 2 17.9919 2 19.4305 2.95188C20.0729 3.37694 20.6231 3.9271 21.0481 4.5695C22 6.0081 22 8.0054 22 12C22 15.9946 22 17.9919 21.0481 19.4305C20.6231 20.0729 20.0729 20.6231 19.4305 21.0481C17.9919 22 15.9946 22 12 22C8.0054 22 6.0081 22 4.5695 21.0481C3.9271 20.6231 3.37694 20.0729 2.95188 19.4305C2 17.9919 2 15.9946 2 12ZM17.1774 12.0004C17.1774 14.8597 14.8595 17.1775 12.0003 17.1775C9.14101 17.1775 6.82313 14.8597 6.82313 12.0004C6.82313 9.14116 9.14101 6.82329 12.0003 6.82329C14.8595 6.82329 17.1774 9.14116 17.1774 12.0004ZM17.3821 7.77945C18.0539 7.77945 18.5985 7.23482 18.5985 6.56298C18.5985 5.89114 18.0539 5.34651 17.3821 5.34651C16.7102 5.34651 16.1656 5.89114 16.1656 6.56298C16.1656 7.23482 16.7102 7.77945 17.3821 7.77945Z" fill="#0C111F"/>
</svg>
