<svg width="24" height="24" viewBox="0 0 24 24" fill="none" xmlns="http://www.w3.org/2000/svg">
<path d="M2 4.7126C2 4.07126 2.22523 3.54215 2.67568 3.1253C3.12612 2.70843 3.71172 2.5 4.43243 2.5C5.14029 2.5 5.71299 2.70521 6.15058 3.11568C6.60102 3.53896 6.82625 4.09049 6.82625 4.77032C6.82625 5.386 6.60747 5.89906 6.16988 6.30952C5.71944 6.7328 5.12741 6.94444 4.39382 6.94444H4.37452C3.66666 6.94444 3.09396 6.7328 2.65637 6.30952C2.21878 5.88624 2 5.35393 2 4.7126ZM2.25097 21.5476V8.69528H6.53668V21.5476H2.25097ZM8.9112 21.5476H13.1969V14.3711C13.1969 13.9221 13.2484 13.5758 13.3514 13.3321C13.5315 12.896 13.805 12.5272 14.1718 12.2258C14.5386 11.9244 14.9987 11.7737 15.5521 11.7737C16.9936 11.7737 17.7143 12.7421 17.7143 14.6789V21.5476H22V14.1787C22 12.2803 21.5496 10.8405 20.6486 9.8593C19.7477 8.87806 18.5573 8.38744 17.0772 8.38744C15.417 8.38744 14.1236 9.09932 13.1969 10.5231V10.5616H13.1776L13.1969 10.5231V8.69528H8.9112C8.93693 9.10573 8.94981 10.382 8.94981 12.524C8.94981 14.6661 8.93693 17.6739 8.9112 21.5476Z" fill="#0C111F"/>
</svg>
