<svg width="1441" height="1293" viewBox="0 0 1441 1293" fill="none" xmlns="http://www.w3.org/2000/svg">
<rect x="2" y="572" width="179" height="180" fill="white" fill-opacity="0.05"/>
<rect x="361.5" y="392" width="179" height="180" fill="white" fill-opacity="0.05"/>
<rect x="1260.5" y="392" width="179" height="180" fill="white" fill-opacity="0.05"/>
<rect x="901" y="572.5" width="179" height="180" fill="white" fill-opacity="0.05"/>
<rect x="901" y="931.5" width="179" height="180" fill="white" fill-opacity="0.05"/>
<rect x="541" y="1112.5" width="179" height="180" fill="white" fill-opacity="0.05"/>
<path d="M1.48929 0L1.48924 1144M181.303 0L181.303 1144M361.117 0L361.117 1144M540.931 0L540.931 1144M720.745 0L720.745 1144M900.558 0L900.558 1144M1080.37 0L1080.37 1144M1260.19 0L1260.19 1144M1440 0L1440 1144M1 1112.01H1439.51M1 932.033L1439.51 932.033M1 752.053L1439.51 752.053M1 572.073L1439.51 572.073M1 392.092L1439.51 392.092M1 212.112L1439.51 212.112M1 32.1317L1439.51 32.1318" stroke="url(#paint0_linear_147_1115)" stroke-opacity="0.3"/>
<defs>
<linearGradient id="paint0_linear_147_1115" x1="613" y1="1240" x2="461" y2="59.5001" gradientUnits="userSpaceOnUse">
<stop stop-color="white"/>
<stop offset="1" stop-color="white" stop-opacity="0"/>
</linearGradient>
</defs>
</svg>
