<svg width="24" height="24" viewBox="0 0 24 24" fill="none" xmlns="http://www.w3.org/2000/svg">
<path d="M15.3634 4.0036V4H16.3012L16.6438 4.06844C16.8723 4.11286 17.0797 4.17109 17.266 4.24313C17.4524 4.31516 17.6327 4.39921 17.807 4.49526C17.9814 4.5913 18.1395 4.68916 18.2814 4.78881C18.422 4.88727 18.5483 4.99172 18.6601 5.10217C18.7707 5.21383 18.9432 5.24264 19.1776 5.18862C19.4121 5.13459 19.6646 5.05954 19.9351 4.9635C20.2056 4.86746 20.4731 4.7594 20.7376 4.63933C21.0021 4.51926 21.1632 4.44303 21.2209 4.41061C21.2774 4.37701 21.3075 4.359 21.3111 4.35658L21.3147 4.35118L21.3327 4.34218L21.3508 4.33317L21.3688 4.32417L21.3868 4.31516L21.3904 4.30976L21.3959 4.30616L21.4013 4.30256L21.4049 4.29715L21.4229 4.29175L21.4409 4.28815L21.4373 4.31516L21.4319 4.34218L21.4229 4.36919L21.4139 4.39621L21.4049 4.41421L21.3959 4.43222L21.3868 4.45924C21.3808 4.47725 21.3748 4.50125 21.3688 4.53128C21.3628 4.5613 21.3057 4.68135 21.1975 4.89146C21.0893 5.10158 20.954 5.31468 20.7917 5.53079C20.6294 5.74691 20.4839 5.91018 20.3553 6.02065C20.2254 6.13231 20.1395 6.21034 20.0974 6.25477C20.0553 6.30039 20.0042 6.3424 19.9441 6.38084L19.8539 6.44027L19.8359 6.44927L19.8179 6.45828L19.8143 6.46368L19.8088 6.46728L19.8034 6.47088L19.7998 6.47628L19.7818 6.48529L19.7638 6.49429L19.7602 6.4997L19.7547 6.5033L19.7493 6.5069L19.7457 6.5123L19.7421 6.51771L19.7367 6.52131L19.7313 6.52491L19.7277 6.53031H19.8179L20.3228 6.42226C20.6595 6.35022 20.9811 6.26318 21.2876 6.16112L21.7746 5.99904L21.8287 5.98103L21.8557 5.97202L21.8738 5.96302L21.8918 5.95401L21.9098 5.94501L21.9279 5.936L21.9639 5.9306L22 5.927V5.96302L21.991 5.96662L21.982 5.97202L21.9784 5.97743L21.9729 5.98103L21.9675 5.98463L21.9639 5.99003L21.9603 5.99544L21.9549 5.99904L21.9495 6.00264L21.9459 6.00804L21.9423 6.01344L21.9369 6.01705L21.9279 6.03506L21.9188 6.05307L21.9134 6.05667C21.911 6.06027 21.8347 6.16231 21.6844 6.36283C21.5341 6.56453 21.453 6.66657 21.4409 6.66898C21.4289 6.67259 21.4121 6.6906 21.3904 6.72301C21.37 6.75662 21.2426 6.8905 21.0081 7.12462C20.7737 7.35874 20.5441 7.56704 20.3192 7.74955C20.0932 7.93324 19.979 8.15895 19.9766 8.4267C19.973 8.69323 19.9591 8.9946 19.9351 9.33077C19.911 9.66695 19.866 10.0301 19.7998 10.4203C19.7337 10.8105 19.6315 11.2518 19.4932 11.744C19.355 12.2363 19.1867 12.7165 18.9883 13.1848C18.7899 13.653 18.5825 14.0732 18.3661 14.4454C18.1497 14.8176 17.9513 15.1328 17.771 15.3909C17.5906 15.649 17.4073 15.8922 17.2209 16.1203C17.0346 16.3484 16.7989 16.6054 16.514 16.8911C16.2278 17.1756 16.0716 17.3317 16.0451 17.3593C16.0175 17.3857 15.8996 17.4842 15.6916 17.6547C15.4848 17.8264 15.2624 17.998 15.0243 18.1698C14.7875 18.3402 14.5699 18.4825 14.3715 18.5966C14.1731 18.7106 13.9339 18.8409 13.6537 18.9874C13.3748 19.1351 13.073 19.2719 12.7484 19.398C12.4238 19.5241 12.0812 19.6411 11.7205 19.7492C11.3598 19.8572 11.0111 19.9413 10.6745 20.0013C10.3379 20.0613 9.95612 20.1124 9.52931 20.1544L8.88909 20.2174V20.2264H7.71686V20.2174L7.56357 20.2084C7.46139 20.2024 7.37722 20.1964 7.31109 20.1904C7.24498 20.1844 6.99549 20.1514 6.56267 20.0913C6.12985 20.0313 5.79021 19.9713 5.54373 19.9113C5.29728 19.8512 4.93057 19.7372 4.44364 19.5691C3.95672 19.401 3.54013 19.2311 3.19387 19.0594C2.84882 18.8889 2.63241 18.7809 2.54463 18.7352C2.45807 18.6908 2.36069 18.6356 2.25248 18.5696L2.09017 18.4705L2.08658 18.4651L2.08115 18.4615L2.07574 18.4579L2.07214 18.4525L2.0541 18.4435L2.03607 18.4345L2.03248 18.4291L2.02705 18.4255L2.02164 18.4219L2.01803 18.4165L2.01445 18.4111L2.00902 18.4075H2V18.3715L2.01803 18.3751L2.03607 18.3805L2.11722 18.3895C2.17133 18.3955 2.31861 18.4045 2.55906 18.4165C2.79953 18.4285 3.055 18.4285 3.32552 18.4165C3.59603 18.4045 3.87257 18.3775 4.15509 18.3354C4.43764 18.2934 4.77127 18.2214 5.156 18.1193C5.54074 18.0173 5.89421 17.896 6.21643 17.7555C6.53744 17.6139 6.76586 17.5082 6.90173 17.4386C7.03638 17.3701 7.24197 17.2429 7.51849 17.0568L7.93327 16.7776L7.93688 16.7722L7.94229 16.7686L7.94772 16.765L7.95131 16.7596L7.95491 16.7542L7.96032 16.7506L7.96575 16.747L7.96934 16.7416L7.98738 16.7362L8.00541 16.7326L8.00902 16.7146L8.01443 16.6966L8.01986 16.693L8.02344 16.6876L7.87917 16.6786C7.78299 16.6726 7.68981 16.6666 7.59964 16.6606C7.50947 16.6546 7.36821 16.6276 7.17583 16.5795C6.98348 16.5315 6.77609 16.4595 6.55365 16.3634C6.33124 16.2674 6.11482 16.1533 5.90442 16.0212C5.69403 15.8892 5.54193 15.7793 5.44815 15.6917C5.35558 15.6052 5.23535 15.4828 5.08747 15.3243C4.94079 15.1646 4.81335 15.0007 4.70514 14.8326C4.59693 14.6645 4.49354 14.4706 4.39497 14.2509L4.24527 13.9231L4.23625 13.8961L4.22723 13.8691L4.22182 13.8511L4.21821 13.8331L4.24527 13.8367L4.27232 13.8421L4.47069 13.8691C4.60296 13.8871 4.81035 13.8931 5.09288 13.8871C5.37542 13.8811 5.57078 13.8691 5.67899 13.8511C5.7872 13.8331 5.85333 13.8211 5.87737 13.8151L5.91344 13.8061L5.95852 13.7971L6.00361 13.7881L6.00721 13.7827L6.01262 13.7791L6.01805 13.7755L6.02164 13.7701L5.98557 13.7611L5.9495 13.7521L5.91344 13.7431L5.87737 13.734L5.8413 13.725C5.81726 13.719 5.77518 13.707 5.71506 13.689C5.65495 13.671 5.49264 13.605 5.22813 13.4909C4.96364 13.3769 4.75324 13.2658 4.59693 13.1578C4.44024 13.0494 4.29084 12.9309 4.14968 12.803C4.00902 12.6733 3.85454 12.5064 3.6862 12.3023C3.51789 12.0982 3.36761 11.8611 3.23535 11.5909C3.1031 11.3208 3.00391 11.0627 2.93778 10.8165C2.87192 10.5719 2.82846 10.3217 2.80795 10.0691L2.77547 9.69095L2.79351 9.69455L2.81154 9.69996L2.82958 9.70896L2.84761 9.71797L2.86564 9.72697L2.88368 9.73598L3.16321 9.86204C3.34958 9.94609 3.58101 10.0181 3.85753 10.0782C4.13407 10.1382 4.29937 10.1712 4.35347 10.1772L4.43463 10.1862H4.59693L4.59335 10.1808L4.58792 10.1772L4.58251 10.1736L4.5789 10.1682L4.57531 10.1628L4.56988 10.1592L4.56447 10.1556L4.56087 10.1502L4.54283 10.1412L4.5248 10.1322L4.52121 10.1268L4.51578 10.1232L4.51037 10.1196L4.50676 10.1142L4.48873 10.1052L4.47069 10.0962L4.46711 10.0908C4.4635 10.0883 4.41179 10.0499 4.31199 9.9755C4.2134 9.89986 4.11001 9.80202 4.0018 9.68195C3.8936 9.56188 3.78539 9.43581 3.67719 9.30375C3.56878 9.17139 3.47223 9.02977 3.38864 8.88053C3.30449 8.73046 3.21551 8.53954 3.12173 8.30783C3.02916 8.07731 2.95883 7.84499 2.91073 7.61087C2.86265 7.37675 2.8356 7.14564 2.82958 6.91751C2.82357 6.68939 2.82958 6.49429 2.84761 6.33221C2.86564 6.17013 2.90171 5.98702 2.95582 5.78292C3.00992 5.57882 3.08808 5.36271 3.19026 5.13459L3.34355 4.79241L3.35257 4.7654L3.36159 4.73838L3.36702 4.73478L3.3706 4.72938L3.37421 4.72398L3.37962 4.72037L3.38505 4.72398L3.38864 4.72938L3.39225 4.73478L3.39766 4.73838L3.40308 4.74198L3.40667 4.74739L3.41028 4.75279L3.41569 4.75639L3.42471 4.7744L3.43372 4.79241L3.43915 4.79601L3.44274 4.80142L3.6862 5.07156C3.84851 5.25165 4.04088 5.45276 4.2633 5.67487C4.48573 5.89698 4.60896 6.01224 4.633 6.02065C4.65706 6.03025 4.68711 6.05786 4.72317 6.10349C4.75924 6.14792 4.87948 6.25418 5.08386 6.42226C5.28826 6.59034 5.55576 6.78545 5.88638 7.00756C6.21702 7.22967 6.58371 7.44879 6.98647 7.6649C7.38925 7.88101 7.82207 8.07611 8.28494 8.2502C8.74783 8.4243 9.07244 8.53835 9.25879 8.59238C9.44516 8.64641 9.76375 8.71544 10.2146 8.79949C10.6655 8.88354 11.0051 8.93757 11.2335 8.96157C11.462 8.98558 11.6183 8.99939 11.7024 9.003L11.8287 9.0066L11.8251 8.97958L11.8197 8.95257L11.7836 8.72745C11.7595 8.57738 11.7475 8.36727 11.7475 8.09713C11.7475 7.82699 11.7686 7.57786 11.8106 7.34974C11.8527 7.12161 11.9159 6.8905 12 6.65638C12.0842 6.42226 12.1665 6.23435 12.2471 6.09269C12.3288 5.95221 12.4358 5.79193 12.5681 5.61184C12.7003 5.43174 12.8717 5.24565 13.0821 5.05355C13.2925 4.86144 13.5329 4.69035 13.8034 4.54028C14.0739 4.39021 14.3234 4.27614 14.5518 4.1981C14.7803 4.12007 14.9727 4.06903 15.1289 4.04502C15.2852 4.02102 15.3634 4.0072 15.3634 4.0036Z" fill="#0C111F"/>
</svg>
