<svg width="24" height="24" viewBox="0 0 24 24" fill="none" xmlns="http://www.w3.org/2000/svg">
<path d="M11.94 2.20995L9.52999 7.81995H7.11999C6.71999 7.81995 6.32999 7.84995 5.94999 7.92995L6.94999 5.52995L6.98999 5.43995L7.04999 5.27995C7.07999 5.20995 7.09999 5.14995 7.12999 5.09995C8.28999 2.40995 9.58999 1.56995 11.94 2.20995Z" fill="#0C111F"/>
<path d="M18.73 8.08995L18.71 8.07995C18.11 7.90995 17.5 7.81995 16.88 7.81995H10.62L12.87 2.58995L12.9 2.51995C13.04 2.56995 13.19 2.63995 13.34 2.68995L15.55 3.61995C16.78 4.12995 17.64 4.65995 18.17 5.29995C18.26 5.41995 18.34 5.52995 18.42 5.65995C18.51 5.79995 18.58 5.93995 18.62 6.08995C18.66 6.17995 18.69 6.25995 18.71 6.34995C18.86 6.85995 18.87 7.43995 18.73 8.08995Z" fill="#0C111F"/>
<path d="M12.52 17.66H12.77C13.07 17.66 13.32 17.39 13.32 17.06C13.32 16.64 13.2 16.58 12.94 16.48L12.52 16.33V17.66Z" fill="#0C111F"/>
<path d="M18.29 9.51995C17.84 9.38995 17.37 9.31995 16.88 9.31995H7.11999C6.43999 9.31995 5.79999 9.44995 5.19999 9.70995C3.45999 10.46 2.23999 12.19 2.23999 14.2V16.15C2.23999 16.39 2.25999 16.62 2.28999 16.86C2.50999 20.04 4.20999 21.74 7.38999 21.95C7.61999 21.98 7.84999 22 8.09999 22H15.9C19.6 22 21.55 20.24 21.74 16.74C21.75 16.55 21.76 16.35 21.76 16.15V14.2C21.76 11.99 20.29 10.13 18.29 9.51995ZM13.28 15.5C13.74 15.66 14.36 16 14.36 17.06C14.36 17.97 13.65 18.7 12.77 18.7H12.52V18.92C12.52 19.21 12.29 19.44 12 19.44C11.71 19.44 11.48 19.21 11.48 18.92V18.7H11.39C10.43 18.7 9.63999 17.89 9.63999 16.89C9.63999 16.6 9.86999 16.37 10.16 16.37C10.45 16.37 10.68 16.6 10.68 16.89C10.68 17.31 11 17.66 11.39 17.66H11.48V15.97L10.72 15.7C10.26 15.54 9.63999 15.2 9.63999 14.14C9.63999 13.23 10.35 12.5 11.23 12.5H11.48V12.28C11.48 11.99 11.71 11.76 12 11.76C12.29 11.76 12.52 11.99 12.52 12.28V12.5H12.61C13.57 12.5 14.36 13.31 14.36 14.31C14.36 14.6 14.13 14.83 13.84 14.83C13.55 14.83 13.32 14.6 13.32 14.31C13.32 13.89 13 13.54 12.61 13.54H12.52V15.23L13.28 15.5Z" fill="#0C111F"/>
<path d="M10.68 14.14C10.68 14.56 10.8 14.62 11.06 14.72L11.48 14.87V13.54H11.23C10.92 13.54 10.68 13.81 10.68 14.14Z" fill="#0C111F"/>
</svg>
