<svg width="33" height="32" viewBox="0 0 33 32" fill="none" xmlns="http://www.w3.org/2000/svg">
<g clip-path="url(#clip0_144169_183223)">
<path d="M22.6203 12H20.5003V5.33333C20.5003 4.6 19.9003 4 19.167 4H13.8337C13.1003 4 12.5003 4.6 12.5003 5.33333V12H10.3803C9.19366 12 8.59366 13.44 9.43366 14.28L15.5537 20.4C16.0737 20.92 16.9137 20.92 17.4337 20.4L23.5537 14.28C24.3937 13.44 23.807 12 22.6203 12ZM7.16699 25.3333C7.16699 26.0667 7.76699 26.6667 8.50033 26.6667H24.5003C25.2337 26.6667 25.8337 26.0667 25.8337 25.3333C25.8337 24.6 25.2337 24 24.5003 24H8.50033C7.76699 24 7.16699 24.6 7.16699 25.3333Z" fill="#016CFF"/>
</g>
<defs>
<clipPath id="clip0_144169_183223">
<rect width="32" height="32" fill="white" transform="translate(0.5)"/>
</clipPath>
</defs>
</svg>
