<svg width="24" height="24" viewBox="0 0 24 24" fill="none" xmlns="http://www.w3.org/2000/svg">
<g clip-path="url(#clip0_144136_184671)">
<path d="M19.231 15.2617L16.691 14.9717C16.081 14.9017 15.481 15.1117 15.051 15.5417L13.211 17.3817C10.381 15.9417 8.06102 13.6317 6.62102 10.7917L8.47102 8.94172C8.90102 8.51172 9.11102 7.91172 9.04102 7.30172L8.75102 4.78172C8.63102 3.77172 7.78102 3.01172 6.76102 3.01172H5.03102C3.90102 3.01172 2.96102 3.95172 3.03102 5.08172C3.56102 13.6217 10.391 20.4417 18.921 20.9717C20.051 21.0417 20.991 20.1017 20.991 18.9717V17.2417C21.001 16.2317 20.241 15.3817 19.231 15.2617Z" fill="white"/>
</g>
<defs>
<clipPath id="clip0_144136_184671">
<rect width="24" height="24" fill="white"/>
</clipPath>
</defs>
</svg>
