<svg width="27" height="24" viewBox="0 0 27 24" fill="none" xmlns="http://www.w3.org/2000/svg">
<path fill-rule="evenodd" clip-rule="evenodd" d="M18.1411 4.95318C16.653 3.94942 14.8852 3.44254 13.0913 3.50518C11.2974 3.56783 9.56933 4.19678 8.15484 5.30191C6.74034 6.40704 5.71201 7.9316 5.21723 9.65708C5.10306 10.0553 4.68773 10.2855 4.28956 10.1713C3.89139 10.0571 3.66117 9.64179 3.77534 9.24363C4.35743 7.21364 5.56723 5.42004 7.23134 4.11989C8.89546 2.81974 10.9285 2.07979 13.039 2.00609C15.1495 1.93239 17.2291 2.52873 18.9799 3.70963C20.7306 4.89053 22.0626 6.59537 22.7849 8.5798C22.9266 8.96904 22.7259 9.39942 22.3366 9.54109C21.9474 9.68276 21.517 9.48207 21.3753 9.09283C20.7614 7.40606 19.6292 5.95695 18.1411 4.95318Z" fill="white"/>
<path fill-rule="evenodd" clip-rule="evenodd" d="M8.8871 19.2108C10.2824 20.0817 11.9005 20.529 13.545 20.4985C15.1896 20.4681 16.7899 19.9611 18.152 19.0391C19.5142 18.1172 20.5795 16.8198 21.219 15.3044C21.38 14.9227 21.8199 14.7439 22.2015 14.9049C22.5832 15.066 22.762 15.5059 22.601 15.8875C21.8487 17.6704 20.5953 19.1967 18.9928 20.2813C17.3903 21.366 15.5076 21.9624 13.5728 21.9983C11.6381 22.0341 9.73449 21.5079 8.0929 20.4833C6.45132 19.4588 5.14225 17.98 4.32446 16.2262C4.1494 15.8508 4.31182 15.4045 4.68722 15.2295C5.06263 15.0544 5.50886 15.2168 5.68392 15.5923C6.37905 17.083 7.49175 18.34 8.8871 19.2108Z" fill="white"/>
<path fill-rule="evenodd" clip-rule="evenodd" d="M7.95492 14.8249C7.89417 14.4152 7.51276 14.1323 7.10302 14.193L4.53607 14.5737C4.30256 14.6083 4.09897 14.7509 3.98657 14.9585L2.75092 17.2404C2.55369 17.6046 2.68908 18.0598 3.05332 18.257C3.41756 18.4543 3.87273 18.3189 4.06996 17.9546L5.12705 16.0025L7.32305 15.6768C7.73279 15.616 8.01568 15.2346 7.95492 14.8249Z" fill="white"/>
<path fill-rule="evenodd" clip-rule="evenodd" d="M18.8927 9.84014C18.9535 10.2499 19.3349 10.5328 19.7446 10.472L22.3116 10.0914C22.5451 10.0567 22.7487 9.91418 22.8611 9.70659L24.0967 7.42463C24.294 7.06039 24.1586 6.60523 23.7943 6.40799C23.4301 6.21076 22.9749 6.34615 22.7777 6.71039L21.7206 8.66259L19.5246 8.98823C19.1149 9.04899 18.832 9.4304 18.8927 9.84014Z" fill="white"/>
</svg>
