<svg width="171" height="34" viewBox="0 0 171 34" fill="none" xmlns="http://www.w3.org/2000/svg">
<g clip-path="url(#clip0_7_61)">
<path fill-rule="evenodd" clip-rule="evenodd" d="M16.5 33C25.6127 33 33 25.6127 33 16.5C33 7.3873 25.6127 0 16.5 0C7.3873 0 0 7.3873 0 16.5C0 25.6127 7.3873 33 16.5 33Z" fill="#444A34"/>
<path fill-rule="evenodd" clip-rule="evenodd" d="M60.5 33C69.6127 33 77 25.6127 77 16.5C77 7.3873 69.6127 0 60.5 0C51.3873 0 44 7.3873 44 16.5C44 25.6127 51.3873 33 60.5 33Z" fill="#444A34"/>
<path fill-rule="evenodd" clip-rule="evenodd" d="M107.5 34C116.613 34 124 26.6127 124 17.5C124 8.3873 116.613 1 107.5 1C98.3873 1 91 8.3873 91 17.5C91 26.6127 98.3873 34 107.5 34Z" fill="#FFD723"/>
<path fill-rule="evenodd" clip-rule="evenodd" d="M154.5 34C163.613 34 171 26.6127 171 17.5C171 8.3873 163.613 1 154.5 1C145.387 1 138 8.3873 138 17.5C138 26.6127 145.387 34 154.5 34Z" fill="#444A34"/>
<path d="M20.6328 10.692C20.3616 10.6518 19.4275 10.5714 18.3426 10.5714C16.0725 10.5714 14.5156 11.9576 14.5156 14.4989V16.6886H11.9542V19.6618H14.5156V27.2857H17.5893V19.6618H20.1406L20.5324 16.6886H17.5893V14.7902C17.5893 13.9364 17.8203 13.3437 19.0558 13.3437H20.6328V10.692ZM69.0555 14.6696C68.4729 14.9208 67.8401 15.1016 67.1872 15.1719C67.8602 14.7701 68.3725 14.1373 68.6136 13.3839C67.9908 13.7556 67.2877 14.0268 66.5544 14.1674C65.9618 13.5346 65.118 13.1429 64.1839 13.1429C62.3859 13.1429 60.9395 14.5993 60.9395 16.3873C60.9395 16.6384 60.9696 16.8895 61.0198 17.1306C58.3278 16.99 55.9272 15.7042 54.3301 13.7355C54.0488 14.2176 53.8881 14.7701 53.8881 15.3728C53.8881 16.4978 54.4607 17.4922 55.3345 18.0748C54.8022 18.0547 54.2999 17.904 53.868 17.6629C53.868 17.673 53.868 17.6931 53.868 17.7031C53.868 19.2801 54.983 20.5859 56.4696 20.8873C56.1984 20.9576 55.9071 20.9978 55.6158 20.9978C55.4049 20.9978 55.204 20.9777 55.0031 20.9475C55.4149 22.2333 56.6102 23.1674 58.0366 23.1975C56.9216 24.0714 55.5254 24.5837 54.0086 24.5837C53.7374 24.5837 53.4863 24.5737 53.2252 24.5435C54.6616 25.4676 56.3691 26 58.2073 26C64.1738 26 67.4383 21.058 67.4383 16.769C67.4383 16.6283 67.4383 16.4877 67.4283 16.3471C68.0611 15.885 68.6136 15.3125 69.0555 14.6696ZM150.156 16.8493H146.841V26.8036H150.156V16.8493ZM150.367 13.7757C150.357 12.8013 149.654 12.058 148.519 12.058C147.394 12.058 146.65 12.8013 146.65 13.7757C146.65 14.7299 147.364 15.4933 148.479 15.4933H148.499C149.654 15.4933 150.377 14.7299 150.367 13.7757ZM162.079 21.0982C162.079 18.0446 160.452 16.6183 158.272 16.6183C156.484 16.6183 155.701 17.6127 155.269 18.2958H155.289V16.8493H151.984C151.984 16.8493 152.024 17.7835 151.984 26.8036H155.289V21.2489C155.289 20.9475 155.319 20.6562 155.399 20.4353C155.64 19.8426 156.183 19.2299 157.097 19.2299C158.292 19.2299 158.774 20.144 158.774 21.4799V26.8036H162.079V21.0982Z" fill="#5E6648"/>
<path d="M110.934 19.7422C110.934 19.26 110.884 18.8884 110.814 18.5167H103.863V21.048H108.041C107.871 22.1228 106.776 24.2221 103.863 24.2221C101.352 24.2221 99.3025 22.1429 99.3025 19.5714C99.3025 17 101.352 14.9208 103.863 14.9208C105.299 14.9208 106.253 15.5335 106.796 16.0558L108.795 14.1373C107.509 12.9319 105.852 12.2087 103.863 12.2087C99.7946 12.2087 96.5 15.5033 96.5 19.5714C96.5 23.6395 99.7946 26.9342 103.863 26.9342C108.112 26.9342 110.934 23.9509 110.934 19.7422ZM119.643 18.5167H117.544V16.4174H115.434V18.5167H113.335V20.6261H115.434V22.7254H117.544V20.6261H119.643V18.5167Z" fill="white"/>
</g>
<defs>
<clipPath id="clip0_7_61">
<rect width="171" height="34" fill="white"/>
</clipPath>
</defs>
</svg>
