<svg width="26" height="27" viewBox="0 0 26 27" fill="none" xmlns="http://www.w3.org/2000/svg">
<path d="M11.3335 2.3336L11.3335 20.9503L3.20013 12.8169C2.55013 12.1669 1.48347 12.1669 0.833467 12.8169C0.183468 13.4669 0.183468 14.5169 0.833467 15.1669L11.8168 26.1503C12.4668 26.8003 13.5168 26.8003 14.1668 26.1503L25.1668 15.1836C25.8168 14.5336 25.8168 13.4836 25.1668 12.8336C24.5168 12.1836 23.4668 12.1836 22.8168 12.8336L14.6668 20.9503L14.6668 2.3336C14.6668 1.41693 13.9168 0.666931 13.0001 0.666931C12.0835 0.666931 11.3335 1.41693 11.3335 2.3336Z" fill="url(#paint0_linear_483_528)"/>
<defs>
<linearGradient id="paint0_linear_483_528" x1="0.345967" y1="26.6378" x2="5.51691" y2="-2.86281" gradientUnits="userSpaceOnUse">
<stop stop-color="#00796D"/>
<stop offset="1" stop-color="#38C682"/>
</linearGradient>
</defs>
</svg>
